<svg width="511" height="295" viewBox="0 0 511 295" fill="none" xmlns="http://www.w3.org/2000/svg">
<rect width="416" height="174" transform="matrix(0.866025 -0.5 0.866025 0.5 0 208)" fill="white"/>
<path d="M207.5 131.656L224.425 141.428L221.03 143.388L213.829 139.23L206.578 143.416L213.78 147.574L210.385 149.534L193.46 139.762L196.854 137.802L203.814 141.82L211.064 137.634L204.105 133.616L207.5 131.656ZM233.247 128.243C233.732 128.523 234.136 128.794 234.459 129.055L224.639 134.725C225.689 135.238 226.789 135.481 227.936 135.453C229.084 135.425 230.094 135.159 230.967 134.655C232.228 133.927 232.584 133.096 232.034 132.163L235.696 130.049C236.601 131.02 236.925 132.065 236.666 133.185C236.391 134.296 235.453 135.313 233.853 136.237C232.56 136.984 231.113 137.492 229.512 137.763C227.912 138.015 226.295 138.006 224.663 137.735C223.046 137.455 221.551 136.918 220.177 136.125C218.786 135.322 217.849 134.454 217.364 133.521C216.879 132.588 216.863 131.664 217.315 130.749C217.768 129.834 218.657 128.994 219.983 128.229C221.26 127.492 222.674 126.992 224.226 126.731C225.794 126.46 227.362 126.46 228.931 126.731C230.499 126.983 231.937 127.487 233.247 128.243ZM228.761 129.713C227.872 129.218 226.861 128.999 225.73 129.055C224.582 129.102 223.563 129.382 222.674 129.895C221.834 130.38 221.381 130.94 221.316 131.575C221.252 132.191 221.607 132.798 222.383 133.395L228.761 129.713ZM242.151 115.682L253.62 131.908L250.007 133.994L246.224 128.45L227.747 123.998L231.554 121.8L244.406 125.216L238.538 117.768L242.151 115.682ZM246.624 112.232L250.867 114.682L256.566 111.392L259.257 112.946L253.559 116.236L258.045 118.826L264.471 115.116L267.235 116.712L257.414 122.382L240.465 112.596L250.285 106.926L253.05 108.522L246.624 112.232ZM272.794 109.89L265.883 101.98L269.496 99.8945L277.959 110.52L273.836 112.9L255.456 108L259.093 105.9L272.794 109.89ZM290.317 95.2936C290.801 95.5736 291.206 95.8443 291.529 96.1056L281.708 101.776C282.759 102.289 283.858 102.532 285.006 102.504C286.154 102.476 287.164 102.21 288.037 101.706C289.298 100.978 289.654 100.147 289.104 99.2136L292.766 97.0996C293.671 98.0703 293.994 99.1156 293.736 100.236C293.461 101.346 292.523 102.364 290.923 103.288C289.629 104.034 288.183 104.543 286.582 104.814C284.982 105.066 283.365 105.056 281.732 104.786C280.116 104.506 278.621 103.969 277.246 103.176C275.856 102.373 274.919 101.505 274.434 100.572C273.949 99.6383 273.932 98.7143 274.385 97.7996C274.838 96.885 275.727 96.045 277.052 95.2796C278.33 94.5423 279.744 94.043 281.296 93.7816C282.864 93.511 284.432 93.511 286 93.7816C287.568 94.0336 289.007 94.5376 290.317 95.2936ZM285.831 96.7636C284.941 96.269 283.931 96.0496 282.799 96.1056C281.652 96.1523 280.633 96.4323 279.744 96.9456C278.903 97.431 278.451 97.991 278.386 98.6256C278.321 99.2416 278.677 99.8483 279.453 100.446L285.831 96.7636ZM293.619 85.743C295.219 84.819 297.022 84.3663 299.026 84.385C301.015 84.3943 302.914 84.9217 304.725 85.967L312.606 90.517L309.211 92.477L301.791 88.193C300.724 87.577 299.641 87.2597 298.541 87.241C297.426 87.213 296.407 87.465 295.486 87.997C294.548 88.5383 294.096 89.1357 294.128 89.789C294.16 90.4237 294.71 91.049 295.777 91.665L303.197 95.949L299.802 97.909L286.369 90.153L289.763 88.193L291.437 89.159C291.307 88.5617 291.428 87.969 291.8 87.381C292.172 86.7743 292.778 86.2283 293.619 85.743ZM309.141 80.2251L315.64 83.9771C316.093 84.2385 316.529 84.3691 316.949 84.3691C317.37 84.3505 317.838 84.1918 318.356 83.8931L319.932 82.9831L322.793 84.6351L320.659 85.8671C317.798 87.5191 314.977 87.5425 312.197 85.9371L305.722 82.1991L304.122 83.1231L301.333 81.5131L302.934 80.5891L299.612 78.6711L303.031 76.6971L306.353 78.6151L309.36 76.8791L312.148 78.4891L309.141 80.2251ZM330.594 80.3834C329.495 81.0181 328.315 81.4754 327.054 81.7554C325.777 82.0261 324.54 82.1147 323.344 82.0214C322.164 81.9187 321.137 81.6434 320.264 81.1954L323.683 79.2214C324.265 79.4827 324.944 79.5854 325.72 79.5294C326.512 79.4641 327.24 79.2401 327.902 78.8574C328.549 78.4841 328.921 78.1201 329.018 77.7654C329.131 77.4014 328.986 77.1027 328.581 76.8694C328.145 76.6174 327.595 76.5614 326.932 76.7014C326.27 76.8227 325.324 77.0887 324.095 77.4994C322.851 77.9381 321.776 78.2694 320.87 78.4934C319.981 78.7081 319.035 78.7967 318.033 78.7594C317.047 78.7127 316.101 78.4281 315.196 77.9054C314.452 77.4761 313.984 76.9627 313.79 76.3654C313.612 75.7587 313.741 75.1241 314.178 74.4614C314.63 73.7894 315.398 73.1407 316.481 72.5154C318.082 71.5914 319.763 71.0874 321.525 71.0034C323.271 70.9101 324.871 71.2274 326.326 71.9554L323.077 73.8314C322.495 73.5514 321.848 73.4394 321.137 73.4954C320.426 73.5327 319.739 73.7427 319.076 74.1254C318.462 74.4801 318.098 74.8207 317.985 75.1474C317.888 75.4647 318.041 75.7401 318.445 75.9734C318.898 76.2347 319.472 76.3047 320.167 76.1834C320.846 76.0527 321.784 75.7821 322.98 75.3714C324.192 74.9514 325.243 74.6341 326.132 74.4194C327.021 74.2047 327.967 74.1254 328.969 74.1814C329.972 74.2187 330.925 74.4894 331.831 74.9934C332.607 75.4414 333.084 75.9687 333.261 76.5754C333.455 77.1727 333.326 77.8074 332.873 78.4794C332.421 79.1327 331.661 79.7674 330.594 80.3834ZM325.621 63.1225L336.945 70.1085L334.084 71.7605L321.96 65.2365L325.621 63.1225ZM341.262 74.1685C340.647 74.5232 339.952 74.7098 339.176 74.7285C338.4 74.7285 337.729 74.5652 337.164 74.2385C336.598 73.9118 336.323 73.5292 336.339 73.0905C336.355 72.6332 336.67 72.2272 337.285 71.8725C337.883 71.5272 338.57 71.3545 339.346 71.3545C340.106 71.3452 340.768 71.5038 341.334 71.8305C341.9 72.1572 342.183 72.5445 342.183 72.9925C342.167 73.4312 341.86 73.8232 341.262 74.1685Z" fill="#0C083C"/>
<path d="M207.5 131.656L224.425 141.428L221.03 143.388L213.829 139.23L206.578 143.416L213.78 147.574L210.385 149.534L193.46 139.762L196.854 137.802L203.814 141.82L211.064 137.634L204.105 133.616L207.5 131.656ZM233.247 128.243C233.732 128.523 234.136 128.794 234.459 129.055L224.639 134.725C225.689 135.238 226.789 135.481 227.936 135.453C229.084 135.425 230.094 135.159 230.967 134.655C232.228 133.927 232.584 133.096 232.034 132.163L235.696 130.049C236.601 131.02 236.925 132.065 236.666 133.185C236.391 134.296 235.453 135.313 233.853 136.237C232.56 136.984 231.113 137.492 229.512 137.763C227.912 138.015 226.295 138.006 224.663 137.735C223.046 137.455 221.551 136.918 220.177 136.125C218.786 135.322 217.849 134.454 217.364 133.521C216.879 132.588 216.863 131.664 217.315 130.749C217.768 129.834 218.657 128.994 219.983 128.229C221.26 127.492 222.674 126.992 224.226 126.731C225.794 126.46 227.362 126.46 228.931 126.731C230.499 126.983 231.937 127.487 233.247 128.243ZM228.761 129.713C227.872 129.218 226.861 128.999 225.73 129.055C224.582 129.102 223.563 129.382 222.674 129.895C221.834 130.38 221.381 130.94 221.316 131.575C221.252 132.191 221.607 132.798 222.383 133.395L228.761 129.713ZM242.151 115.682L253.62 131.908L250.007 133.994L246.224 128.45L227.747 123.998L231.554 121.8L244.406 125.216L238.538 117.768L242.151 115.682ZM246.624 112.232L250.867 114.682L256.566 111.392L259.257 112.946L253.559 116.236L258.045 118.826L264.471 115.116L267.235 116.712L257.414 122.382L240.465 112.596L250.285 106.926L253.05 108.522L246.624 112.232ZM272.794 109.89L265.883 101.98L269.496 99.8945L277.959 110.52L273.836 112.9L255.456 108L259.093 105.9L272.794 109.89ZM290.317 95.2936C290.801 95.5736 291.206 95.8443 291.529 96.1056L281.708 101.776C282.759 102.289 283.858 102.532 285.006 102.504C286.154 102.476 287.164 102.21 288.037 101.706C289.298 100.978 289.654 100.147 289.104 99.2136L292.766 97.0996C293.671 98.0703 293.994 99.1156 293.736 100.236C293.461 101.346 292.523 102.364 290.923 103.288C289.629 104.034 288.183 104.543 286.582 104.814C284.982 105.066 283.365 105.056 281.732 104.786C280.116 104.506 278.621 103.969 277.246 103.176C275.856 102.373 274.919 101.505 274.434 100.572C273.949 99.6383 273.932 98.7143 274.385 97.7996C274.838 96.885 275.727 96.045 277.052 95.2796C278.33 94.5423 279.744 94.043 281.296 93.7816C282.864 93.511 284.432 93.511 286 93.7816C287.568 94.0336 289.007 94.5376 290.317 95.2936ZM285.831 96.7636C284.941 96.269 283.931 96.0496 282.799 96.1056C281.652 96.1523 280.633 96.4323 279.744 96.9456C278.903 97.431 278.451 97.991 278.386 98.6256C278.321 99.2416 278.677 99.8483 279.453 100.446L285.831 96.7636ZM293.619 85.743C295.219 84.819 297.022 84.3663 299.026 84.385C301.015 84.3943 302.914 84.9217 304.725 85.967L312.606 90.517L309.211 92.477L301.791 88.193C300.724 87.577 299.641 87.2597 298.541 87.241C297.426 87.213 296.407 87.465 295.486 87.997C294.548 88.5383 294.096 89.1357 294.128 89.789C294.16 90.4237 294.71 91.049 295.777 91.665L303.197 95.949L299.802 97.909L286.369 90.153L289.763 88.193L291.437 89.159C291.307 88.5617 291.428 87.969 291.8 87.381C292.172 86.7743 292.778 86.2283 293.619 85.743ZM309.141 80.2251L315.64 83.9771C316.093 84.2385 316.529 84.3691 316.949 84.3691C317.37 84.3505 317.838 84.1918 318.356 83.8931L319.932 82.9831L322.793 84.6351L320.659 85.8671C317.798 87.5191 314.977 87.5425 312.197 85.9371L305.722 82.1991L304.122 83.1231L301.333 81.5131L302.934 80.5891L299.612 78.6711L303.031 76.6971L306.353 78.6151L309.36 76.8791L312.148 78.4891L309.141 80.2251ZM330.594 80.3834C329.495 81.0181 328.315 81.4754 327.054 81.7554C325.777 82.0261 324.54 82.1147 323.344 82.0214C322.164 81.9187 321.137 81.6434 320.264 81.1954L323.683 79.2214C324.265 79.4827 324.944 79.5854 325.72 79.5294C326.512 79.4641 327.24 79.2401 327.902 78.8574C328.549 78.4841 328.921 78.1201 329.018 77.7654C329.131 77.4014 328.986 77.1027 328.581 76.8694C328.145 76.6174 327.595 76.5614 326.932 76.7014C326.27 76.8227 325.324 77.0887 324.095 77.4994C322.851 77.9381 321.776 78.2694 320.87 78.4934C319.981 78.7081 319.035 78.7967 318.033 78.7594C317.047 78.7127 316.101 78.4281 315.196 77.9054C314.452 77.4761 313.984 76.9627 313.79 76.3654C313.612 75.7587 313.741 75.1241 314.178 74.4614C314.63 73.7894 315.398 73.1407 316.481 72.5154C318.082 71.5914 319.763 71.0874 321.525 71.0034C323.271 70.9101 324.871 71.2274 326.326 71.9554L323.077 73.8314C322.495 73.5514 321.848 73.4394 321.137 73.4954C320.426 73.5327 319.739 73.7427 319.076 74.1254C318.462 74.4801 318.098 74.8207 317.985 75.1474C317.888 75.4647 318.041 75.7401 318.445 75.9734C318.898 76.2347 319.472 76.3047 320.167 76.1834C320.846 76.0527 321.784 75.7821 322.98 75.3714C324.192 74.9514 325.243 74.6341 326.132 74.4194C327.021 74.2047 327.967 74.1254 328.969 74.1814C329.972 74.2187 330.925 74.4894 331.831 74.9934C332.607 75.4414 333.084 75.9687 333.261 76.5754C333.455 77.1727 333.326 77.8074 332.873 78.4794C332.421 79.1327 331.661 79.7674 330.594 80.3834ZM325.621 63.1225L336.945 70.1085L334.084 71.7605L321.96 65.2365L325.621 63.1225ZM341.262 74.1685C340.647 74.5232 339.952 74.7098 339.176 74.7285C338.4 74.7285 337.729 74.5652 337.164 74.2385C336.598 73.9118 336.323 73.5292 336.339 73.0905C336.355 72.6332 336.67 72.2272 337.285 71.8725C337.883 71.5272 338.57 71.3545 339.346 71.3545C340.106 71.3452 340.768 71.5038 341.334 71.8305C341.9 72.1572 342.183 72.5445 342.183 72.9925C342.167 73.4312 341.86 73.8232 341.262 74.1685Z" fill="#0C083C"/>
<path d="M240.582 160.212C241.386 160.676 241.778 161.223 241.76 161.852C241.741 162.471 241.169 163.105 240.042 163.756L238.185 164.828L242.217 167.156L240.956 167.884L231.298 162.308L234.416 160.508C235.506 159.879 236.596 159.553 237.686 159.532C238.785 159.505 239.751 159.732 240.582 160.212ZM239.002 163.156C239.704 162.751 240.069 162.364 240.097 161.996C240.125 161.628 239.857 161.281 239.293 160.956C238.102 160.268 236.822 160.319 235.455 161.108L233.598 162.18L237.146 164.228L239.002 163.156ZM251.821 156.891C252.061 157.03 252.301 157.185 252.542 157.355L246.472 160.859C247.267 161.265 248.107 161.457 248.994 161.435C249.881 161.403 250.657 161.195 251.322 160.811C251.867 160.497 252.195 160.163 252.306 159.811C252.417 159.449 252.334 159.102 252.057 158.771L253.414 157.987C253.941 158.526 254.13 159.105 253.983 159.723C253.826 160.337 253.294 160.905 252.389 161.427C251.669 161.843 250.86 162.123 249.964 162.267C249.077 162.406 248.177 162.398 247.262 162.243C246.338 162.083 245.484 161.777 244.699 161.323C243.914 160.87 243.382 160.382 243.105 159.859C242.828 159.337 242.814 158.822 243.064 158.315C243.313 157.798 243.807 157.326 244.546 156.899C245.267 156.483 246.061 156.206 246.93 156.067C247.798 155.929 248.657 155.934 249.507 156.083C250.357 156.222 251.128 156.491 251.821 156.891ZM250.255 157.491C249.775 157.214 249.258 157.038 248.703 156.963C248.14 156.883 247.586 156.899 247.041 157.011C246.496 157.113 246.001 157.291 245.558 157.547C244.921 157.915 244.579 158.347 244.533 158.843C244.496 159.334 244.805 159.806 245.461 160.259L250.255 157.491ZM252.474 153.89C252.261 153.512 252.238 153.136 252.405 152.762C252.58 152.384 252.963 152.024 253.555 151.682L254.857 152.434L254.525 152.626C253.111 153.442 253.171 154.293 254.705 155.178L258.834 157.562L257.573 158.29L249.98 153.906L251.241 153.178L252.474 153.89ZM261.883 147.034L269.476 151.418L268.215 152.146L267.093 151.498C267.241 151.861 267.209 152.231 266.996 152.61C266.784 152.978 266.419 153.311 265.901 153.61C265.31 153.951 264.659 154.189 263.948 154.322C263.227 154.45 262.483 154.453 261.717 154.33C260.959 154.202 260.23 153.935 259.527 153.53L255.08 150.962L256.327 150.242L260.608 152.714C261.356 153.146 262.123 153.37 262.908 153.386C263.684 153.397 264.4 153.213 265.056 152.834C265.73 152.445 266.054 152.018 266.026 151.554C265.998 151.09 265.587 150.629 264.793 150.17L260.622 147.762L261.883 147.034ZM274.418 148.709C273.836 149.045 273.217 149.29 272.561 149.445C271.896 149.594 271.254 149.645 270.635 149.597C270.007 149.543 269.448 149.391 268.959 149.141L270.261 148.389C270.677 148.586 271.162 148.663 271.716 148.621C272.28 148.573 272.82 148.399 273.337 148.101C273.818 147.823 274.09 147.543 274.155 147.261C274.22 146.978 274.09 146.743 273.767 146.557C273.434 146.365 273.042 146.309 272.589 146.389C272.127 146.463 271.508 146.634 270.732 146.901C270.021 147.141 269.411 147.322 268.903 147.445C268.395 147.557 267.864 147.602 267.31 147.581C266.756 147.549 266.234 147.391 265.744 147.109C265.356 146.885 265.116 146.613 265.024 146.293C264.931 145.973 265.005 145.637 265.245 145.285C265.476 144.927 265.864 144.591 266.409 144.277C267.25 143.791 268.141 143.522 269.083 143.469C270.026 143.415 270.885 143.591 271.661 143.997L270.4 144.725C269.975 144.511 269.495 144.421 268.959 144.453C268.432 144.479 267.924 144.634 267.435 144.917C266.982 145.178 266.719 145.442 266.645 145.709C266.571 145.975 266.691 146.199 267.005 146.381C267.254 146.525 267.541 146.599 267.864 146.605C268.187 146.599 268.52 146.557 268.862 146.477C269.204 146.386 269.652 146.25 270.206 146.069C270.899 145.839 271.49 145.669 271.979 145.557C272.46 145.439 272.963 145.394 273.49 145.421C274.026 145.442 274.529 145.583 275 145.845C275.416 146.085 275.675 146.367 275.776 146.693C275.878 147.018 275.813 147.359 275.582 147.717C275.351 148.063 274.963 148.394 274.418 148.709ZM274.549 144.073C273.773 143.625 273.251 143.142 272.984 142.625C272.706 142.102 272.679 141.59 272.9 141.089C273.131 140.582 273.584 140.134 274.258 139.745C274.923 139.361 275.644 139.11 276.42 138.993C277.196 138.876 277.921 138.873 278.595 138.985L277.21 138.185L278.485 137.449L286.078 141.833L284.803 142.569L283.39 141.753C283.584 142.153 283.579 142.582 283.376 143.041C283.173 143.489 282.743 143.902 282.087 144.281C281.413 144.67 280.637 144.926 279.759 145.049C278.882 145.172 277.986 145.15 277.071 144.985C276.157 144.82 275.316 144.516 274.549 144.073ZM280.993 140.369C280.42 140.038 279.806 139.817 279.15 139.705C278.494 139.593 277.856 139.588 277.237 139.689C276.619 139.78 276.074 139.961 275.602 140.233C275.131 140.505 274.813 140.817 274.646 141.169C274.48 141.521 274.494 141.886 274.688 142.265C274.882 142.644 275.265 142.998 275.838 143.329C276.42 143.665 277.043 143.892 277.709 144.009C278.364 144.121 279.002 144.132 279.621 144.041C280.23 143.945 280.771 143.761 281.242 143.489C281.713 143.217 282.032 142.905 282.198 142.553C282.364 142.19 282.35 141.82 282.156 141.441C281.953 141.057 281.565 140.7 280.993 140.369ZM284.246 133.963C284.818 133.632 285.461 133.405 286.172 133.283C286.874 133.155 287.599 133.157 288.347 133.291C289.105 133.419 289.835 133.685 290.537 134.091L295.012 136.675L293.765 137.395L289.47 134.915C288.712 134.477 287.945 134.253 287.169 134.243C286.384 134.227 285.664 134.408 285.008 134.787C284.343 135.171 284.019 135.597 284.038 136.067C284.066 136.531 284.477 136.992 285.271 137.451L289.47 139.875L288.209 140.603L277.955 134.683L279.216 133.955L282.957 136.115C282.819 135.747 282.86 135.376 283.082 135.003C283.313 134.624 283.701 134.277 284.246 133.963ZM292.776 133.55C292 133.102 291.479 132.619 291.211 132.102C290.934 131.579 290.906 131.067 291.128 130.566C291.358 130.059 291.811 129.611 292.485 129.222C293.151 128.838 293.871 128.587 294.647 128.47C295.423 128.352 296.148 128.35 296.823 128.462L295.437 127.662L296.712 126.926L304.305 131.31L303.03 132.046L301.617 131.23C301.811 131.63 301.806 132.059 301.603 132.518C301.4 132.966 300.97 133.379 300.314 133.758C299.64 134.147 298.864 134.403 297.986 134.526C297.109 134.648 296.213 134.627 295.298 134.462C294.384 134.296 293.543 133.992 292.776 133.55ZM299.22 129.846C298.647 129.515 298.033 129.294 297.377 129.182C296.721 129.07 296.084 129.064 295.465 129.166C294.846 129.256 294.301 129.438 293.83 129.71C293.358 129.982 293.04 130.294 292.873 130.646C292.707 130.998 292.721 131.363 292.915 131.742C293.109 132.12 293.492 132.475 294.065 132.806C294.647 133.142 295.271 133.368 295.936 133.486C296.592 133.598 297.229 133.608 297.848 133.518C298.458 133.422 298.998 133.238 299.469 132.966C299.94 132.694 300.259 132.382 300.425 132.03C300.591 131.667 300.578 131.296 300.384 130.918C300.18 130.534 299.792 130.176 299.22 129.846ZM302.14 128.143C301.364 127.695 300.842 127.213 300.575 126.695C300.297 126.173 300.27 125.661 300.491 125.159C300.722 124.653 301.175 124.205 301.849 123.815C302.514 123.431 303.235 123.181 304.011 123.063C304.787 122.946 305.512 122.943 306.186 123.055L304.801 122.255L306.076 121.519L313.669 125.903L312.394 126.639L310.981 125.823C311.175 126.223 311.17 126.653 310.967 127.111C310.764 127.559 310.334 127.973 309.678 128.351C309.004 128.741 308.228 128.997 307.35 129.119C306.473 129.242 305.577 129.221 304.662 129.055C303.748 128.89 302.907 128.586 302.14 128.143ZM308.584 124.439C308.011 124.109 307.397 123.887 306.741 123.775C306.085 123.663 305.447 123.658 304.828 123.759C304.21 123.85 303.665 124.031 303.193 124.303C302.722 124.575 302.404 124.887 302.237 125.239C302.071 125.591 302.085 125.957 302.279 126.335C302.473 126.714 302.856 127.069 303.429 127.399C304.011 127.735 304.634 127.962 305.3 128.079C305.955 128.191 306.593 128.202 307.212 128.111C307.821 128.015 308.362 127.831 308.833 127.559C309.304 127.287 309.623 126.975 309.789 126.623C309.955 126.261 309.941 125.89 309.748 125.511C309.544 125.127 309.156 124.77 308.584 124.439ZM311.768 118.073C312.691 117.54 313.721 117.27 314.857 117.265C315.984 117.254 317.075 117.553 318.128 118.161L322.603 120.745L321.356 121.465L317.061 118.985C316.303 118.548 315.536 118.324 314.76 118.313C313.975 118.297 313.255 118.478 312.599 118.857C311.934 119.241 311.61 119.668 311.629 120.137C311.657 120.601 312.068 121.062 312.862 121.521L317.061 123.945L315.8 124.673L308.206 120.289L309.467 119.561L310.548 120.185C310.41 119.817 310.447 119.449 310.659 119.081C310.881 118.708 311.25 118.372 311.768 118.073ZM321.706 110.111C322.759 109.503 323.868 109.092 325.032 108.879C326.195 108.655 327.346 108.636 328.482 108.823C329.627 109.004 330.694 109.38 331.683 109.951C332.671 110.522 333.322 111.138 333.636 111.799C333.95 112.45 333.914 113.111 333.526 113.783C333.138 114.444 332.417 115.079 331.364 115.687L328.357 117.423L318.699 111.847L321.706 110.111ZM330.325 115.087C331.572 114.367 332.195 113.628 332.195 112.871C332.186 112.108 331.586 111.383 330.394 110.695C329.193 110.002 327.923 109.652 326.583 109.647C325.253 109.636 323.969 109.988 322.731 110.703L320.985 111.711L328.579 116.095L330.325 115.087ZM329.979 106.295C329.739 106.433 329.452 106.503 329.12 106.503C328.787 106.503 328.501 106.433 328.261 106.295C328.02 106.156 327.9 105.991 327.9 105.799C327.9 105.607 328.02 105.441 328.261 105.303C328.491 105.169 328.769 105.105 329.092 105.111C329.424 105.111 329.711 105.18 329.951 105.319C330.191 105.457 330.311 105.623 330.311 105.815C330.321 106.001 330.21 106.161 329.979 106.295ZM331.822 106.655L339.415 111.039L338.154 111.767L330.561 107.383L331.822 106.655ZM336.978 103.534C337.633 103.155 338.349 102.907 339.125 102.79C339.91 102.667 340.64 102.662 341.315 102.774L339.929 101.974L341.204 101.238L348.963 105.718C349.656 106.118 350.123 106.558 350.363 107.038C350.612 107.523 350.612 108.014 350.363 108.51C350.123 109.001 349.638 109.457 348.908 109.878C347.91 110.454 346.843 110.798 345.707 110.91C344.571 111.022 343.536 110.878 342.603 110.478L343.85 109.758C344.451 109.945 345.107 109.993 345.818 109.902C346.538 109.817 347.204 109.598 347.813 109.246C348.506 108.846 348.852 108.395 348.852 107.894C348.862 107.387 348.474 106.907 347.689 106.454L346.095 105.534C346.289 105.934 346.289 106.361 346.095 106.814C345.901 107.267 345.476 107.683 344.82 108.062C344.146 108.451 343.365 108.71 342.479 108.838C341.601 108.961 340.705 108.939 339.79 108.774C338.876 108.609 338.035 108.305 337.268 107.862C336.493 107.414 335.971 106.931 335.703 106.414C335.426 105.891 335.398 105.379 335.62 104.878C335.851 104.371 336.303 103.923 336.978 103.534ZM343.712 104.158C343.139 103.827 342.525 103.606 341.869 103.494C341.213 103.382 340.576 103.377 339.957 103.478C339.338 103.569 338.793 103.75 338.322 104.022C337.85 104.294 337.532 104.606 337.365 104.958C337.199 105.31 337.213 105.675 337.407 106.054C337.601 106.433 337.984 106.787 338.557 107.118C339.139 107.454 339.763 107.681 340.428 107.798C341.084 107.91 341.721 107.921 342.34 107.83C342.95 107.734 343.49 107.55 343.961 107.278C344.432 107.006 344.751 106.694 344.917 106.342C345.084 105.979 345.07 105.609 344.876 105.23C344.672 104.846 344.284 104.489 343.712 104.158ZM342.753 98.9198C342.512 99.0585 342.226 99.1278 341.894 99.1278C341.561 99.1278 341.275 99.0585 341.034 98.9198C340.794 98.7811 340.674 98.6158 340.674 98.4238C340.674 98.2318 340.794 98.0665 341.034 97.9278C341.265 97.7945 341.542 97.7305 341.866 97.7358C342.198 97.7358 342.485 97.8051 342.725 97.9438C342.965 98.0825 343.085 98.2478 343.085 98.4398C343.094 98.6265 342.984 98.7865 342.753 98.9198ZM344.596 99.2798L352.189 103.664L350.928 104.392L343.335 100.008L344.596 99.2798ZM349.322 97.7511L353.797 100.335C354.167 100.548 354.509 100.655 354.823 100.655C355.128 100.65 355.474 100.535 355.862 100.311L356.79 99.7751L357.857 100.391L356.721 101.047C356.019 101.452 355.331 101.663 354.657 101.679C353.982 101.695 353.276 101.49 352.537 101.063L348.061 98.4791L347.077 99.0471L346.038 98.4471L347.022 97.8791L345.109 96.7751L346.37 96.0471L348.283 97.1511L350.264 96.0071L351.303 96.6071L349.322 97.7511ZM355.09 97.573C354.314 97.125 353.792 96.6423 353.524 96.125C353.247 95.6023 353.219 95.0903 353.441 94.589C353.672 94.0823 354.124 93.6343 354.799 93.245C355.464 92.861 356.184 92.6103 356.96 92.493C357.736 92.3757 358.461 92.373 359.136 92.485L357.75 91.685L359.025 90.949L366.618 95.333L365.343 96.069L363.93 95.253C364.124 95.653 364.119 96.0823 363.916 96.541C363.713 96.989 363.283 97.4023 362.628 97.781C361.953 98.1703 361.177 98.4263 360.3 98.549C359.422 98.6717 358.526 98.6503 357.612 98.485C356.697 98.3197 355.856 98.0157 355.09 97.573ZM361.533 93.869C360.96 93.5383 360.346 93.317 359.69 93.205C359.034 93.093 358.397 93.0877 357.778 93.189C357.159 93.2797 356.614 93.461 356.143 93.733C355.672 94.005 355.353 94.317 355.187 94.669C355.02 95.021 355.034 95.3863 355.228 95.765C355.422 96.1437 355.806 96.4983 356.378 96.829C356.96 97.165 357.584 97.3917 358.249 97.509C358.905 97.621 359.542 97.6317 360.161 97.541C360.771 97.445 361.311 97.261 361.782 96.989C362.253 96.717 362.572 96.405 362.738 96.053C362.905 95.6903 362.891 95.3197 362.697 94.941C362.494 94.557 362.106 94.1997 361.533 93.869ZM359.756 87.4547L370.01 93.3747L368.749 94.1027L358.495 88.1827L359.756 87.4547Z" fill="#746E6E"/>
<path d="M306.469 166.172C305.832 166.54 305.148 166.807 304.418 166.972C303.688 167.127 302.982 167.172 302.298 167.108C301.605 167.039 300.991 166.855 300.455 166.556L301.799 165.78C302.298 166.015 302.866 166.129 303.504 166.124C304.141 166.108 304.774 165.919 305.402 165.556C306.002 165.209 306.326 164.852 306.372 164.484C306.418 164.105 306.206 163.78 305.735 163.508C305.365 163.295 304.963 163.18 304.529 163.164C304.095 163.148 303.665 163.193 303.24 163.3C302.815 163.407 302.275 163.569 301.619 163.788C300.816 164.06 300.137 164.26 299.582 164.388C299.037 164.511 298.451 164.551 297.823 164.508C297.194 164.455 296.58 164.255 295.98 163.908C295.453 163.604 295.121 163.257 294.982 162.868C294.843 162.479 294.903 162.081 295.162 161.676C295.43 161.265 295.878 160.879 296.506 160.516C297.411 159.993 298.377 159.697 299.402 159.628C300.437 159.553 301.365 159.711 302.187 160.1L300.802 160.9C300.386 160.713 299.869 160.639 299.25 160.676C298.622 160.708 298.026 160.887 297.462 161.212C296.936 161.516 296.645 161.844 296.589 162.196C296.525 162.543 296.737 162.857 297.227 163.14C297.578 163.343 297.961 163.452 298.377 163.468C298.802 163.479 299.217 163.436 299.624 163.34C300.03 163.233 300.571 163.071 301.245 162.852C302.058 162.585 302.746 162.391 303.31 162.268C303.864 162.14 304.46 162.1 305.097 162.148C305.725 162.191 306.344 162.388 306.954 162.74C307.425 163.012 307.744 163.34 307.91 163.724C308.076 164.108 308.044 164.516 307.813 164.948C307.582 165.38 307.134 165.788 306.469 166.172ZM310.583 154.917L318.176 159.301L316.915 160.029L315.793 159.381C315.941 159.743 315.909 160.114 315.696 160.493C315.484 160.861 315.119 161.194 314.601 161.493C314.01 161.834 313.359 162.071 312.648 162.205C311.927 162.333 311.184 162.335 310.417 162.213C309.659 162.085 308.93 161.818 308.228 161.413L303.78 158.845L305.027 158.125L309.308 160.597C310.057 161.029 310.823 161.253 311.608 161.269C312.384 161.279 313.1 161.095 313.756 160.717C314.431 160.327 314.754 159.901 314.726 159.437C314.698 158.973 314.287 158.511 313.493 158.053L309.322 155.645L310.583 154.917ZM315.206 153.671C314.994 153.293 314.971 152.917 315.137 152.543C315.313 152.165 315.696 151.805 316.287 151.463L317.59 152.215L317.257 152.407C315.844 153.223 315.904 154.074 317.437 154.959L321.566 157.343L320.305 158.071L312.712 153.687L313.973 152.959L315.206 153.671ZM321.179 153.151C320.403 152.703 319.881 152.22 319.613 151.703C319.336 151.18 319.308 150.668 319.53 150.167C319.761 149.66 320.214 149.212 320.888 148.823C321.553 148.439 322.274 148.188 323.05 148.071C323.826 147.954 324.551 147.951 325.225 148.063L323.839 147.263L325.114 146.527L332.708 150.911L331.433 151.647L330.019 150.831C330.213 151.231 330.209 151.66 330.006 152.119C329.802 152.567 329.373 152.98 328.717 153.359C328.043 153.748 327.267 154.004 326.389 154.127C325.511 154.25 324.615 154.228 323.701 154.063C322.786 153.898 321.946 153.594 321.179 153.151ZM327.622 149.447C327.05 149.116 326.435 148.895 325.779 148.783C325.124 148.671 324.486 148.666 323.867 148.767C323.248 148.858 322.703 149.039 322.232 149.311C321.761 149.583 321.442 149.895 321.276 150.247C321.11 150.599 321.124 150.964 321.318 151.343C321.512 151.722 321.895 152.076 322.468 152.407C323.05 152.743 323.673 152.97 324.338 153.087C324.994 153.199 325.632 153.21 326.25 153.119C326.86 153.023 327.401 152.839 327.872 152.567C328.343 152.295 328.662 151.983 328.828 151.631C328.994 151.268 328.98 150.898 328.786 150.519C328.583 150.135 328.195 149.778 327.622 149.447ZM329.919 145.385C329.725 144.974 329.735 144.542 329.947 144.089C330.16 143.636 330.585 143.225 331.222 142.857C331.905 142.462 332.681 142.201 333.55 142.073C334.418 141.945 335.305 141.961 336.21 142.121C337.106 142.276 337.942 142.577 338.718 143.025C339.485 143.468 340.011 143.953 340.298 144.481C340.584 145.009 340.617 145.529 340.395 146.041C340.182 146.548 339.739 146.996 339.065 147.385C338.409 147.764 337.688 148.014 336.903 148.137C336.127 148.254 335.393 148.257 334.7 148.145L336.099 148.953L334.838 149.681L324.585 143.761L325.846 143.033L329.919 145.385ZM337.43 143.769C336.857 143.438 336.243 143.217 335.587 143.105C334.931 142.993 334.293 142.988 333.674 143.089C333.065 143.185 332.524 143.369 332.053 143.641C331.591 143.908 331.277 144.222 331.111 144.585C330.945 144.937 330.959 145.308 331.153 145.697C331.347 146.076 331.725 146.428 332.289 146.753C332.862 147.084 333.481 147.308 334.146 147.425C334.811 147.532 335.453 147.54 336.072 147.449C336.691 147.348 337.231 147.164 337.693 146.897C338.164 146.625 338.483 146.313 338.649 145.961C338.815 145.598 338.801 145.228 338.607 144.849C338.404 144.465 338.012 144.105 337.43 143.769ZM339.907 142.339C339.131 141.891 338.609 141.408 338.341 140.891C338.064 140.368 338.036 139.856 338.258 139.355C338.489 138.848 338.942 138.4 339.616 138.011C340.281 137.627 341.002 137.376 341.777 137.259C342.553 137.141 343.279 137.139 343.953 137.251L342.567 136.451L343.842 135.715L351.435 140.099L350.161 140.835L348.747 140.019C348.941 140.419 348.937 140.848 348.733 141.307C348.53 141.755 348.101 142.168 347.445 142.547C346.77 142.936 345.994 143.192 345.117 143.315C344.239 143.437 343.343 143.416 342.429 143.251C341.514 143.085 340.674 142.781 339.907 142.339ZM346.35 138.635C345.777 138.304 345.163 138.083 344.507 137.971C343.851 137.859 343.214 137.853 342.595 137.955C341.976 138.045 341.431 138.227 340.96 138.499C340.489 138.771 340.17 139.083 340.004 139.435C339.838 139.787 339.851 140.152 340.045 140.531C340.239 140.909 340.623 141.264 341.195 141.595C341.777 141.931 342.401 142.157 343.066 142.275C343.722 142.387 344.359 142.397 344.978 142.307C345.588 142.211 346.128 142.027 346.599 141.755C347.071 141.483 347.389 141.171 347.556 140.819C347.722 140.456 347.708 140.085 347.514 139.707C347.311 139.323 346.923 138.965 346.35 138.635ZM352.513 130.708L359.109 139.796L357.806 140.548L355.645 137.572L345.072 135.004L346.472 134.196L355.007 136.372L351.211 131.46L352.513 130.708ZM357.079 132.425C356.303 131.977 355.781 131.494 355.513 130.977C355.236 130.454 355.208 129.942 355.43 129.441C355.661 128.934 356.113 128.486 356.788 128.097C357.453 127.713 358.173 127.462 358.949 127.345C359.725 127.227 360.45 127.225 361.125 127.337L359.739 126.537L361.014 125.801L368.607 130.185L367.332 130.921L365.919 130.105C366.113 130.505 366.108 130.934 365.905 131.393C365.702 131.841 365.272 132.254 364.616 132.633C363.942 133.022 363.166 133.278 362.289 133.401C361.411 133.523 360.515 133.502 359.6 133.337C358.686 133.171 357.845 132.867 357.079 132.425ZM363.522 128.721C362.949 128.39 362.335 128.169 361.679 128.057C361.023 127.945 360.386 127.939 359.767 128.041C359.148 128.131 358.603 128.313 358.132 128.585C357.66 128.857 357.342 129.169 357.176 129.521C357.009 129.873 357.023 130.238 357.217 130.617C357.411 130.995 357.794 131.35 358.367 131.681C358.949 132.017 359.573 132.243 360.238 132.361C360.894 132.473 361.531 132.483 362.15 132.393C362.76 132.297 363.3 132.113 363.771 131.841C364.242 131.569 364.561 131.257 364.727 130.905C364.894 130.542 364.88 130.171 364.686 129.793C364.482 129.409 364.094 129.051 363.522 128.721Z" fill="#0C083C"/>
<g clip-path="url(#clip0_227_2)">
<path d="M265.409 174.703C266.202 172.975 268.547 171.644 271.552 171.214C274.561 170.809 277.748 171.346 279.952 172.631C282.109 173.926 282.968 175.818 283.055 177.614C283.109 178.653 282.952 179.69 282.588 180.704C282.542 180.803 282.465 180.896 282.36 180.979C282.236 181.045 282.084 181.092 281.919 181.115C279.256 181.446 276.502 181.495 273.791 181.261C271.525 181.066 269.405 180.475 267.718 179.567L267.485 179.428C265.437 178.154 264.645 176.368 265.409 174.703ZM272.748 174.564C271.652 174.819 270.942 175.434 270.951 176.121C270.96 176.807 271.685 177.431 272.788 177.7C273.891 177.97 275.154 177.831 275.988 177.35C276.538 177.037 276.844 176.608 276.838 176.158C276.832 175.708 276.515 175.275 275.957 174.955C275.111 174.463 273.844 174.308 272.748 174.564Z" fill="#312B78"/>
<path opacity="0.4" d="M284.922 182.5C287.314 181.119 288.864 179.776 288.386 179.5C287.908 179.224 285.581 180.119 283.19 181.5C280.799 182.881 279.248 184.224 279.726 184.5C280.204 184.776 282.531 183.881 284.922 182.5Z" fill="#312B78"/>
</g>
<g clip-path="url(#clip1_227_2)">
<path d="M358.061 40.9399C361.975 38.6799 367.345 38.7532 371.432 41.1132L380.867 46.5605C384.942 48.9132 385.069 52.0132 381.155 54.2732L371.144 60.0532C367.229 62.3132 361.848 62.2465 357.773 59.8939L348.338 54.4465C344.251 52.0865 344.135 48.9799 348.05 46.7199L358.061 40.9399ZM365.959 45.7132C365.174 45.7132 364.527 46.0865 364.527 46.5399L364.527 52.0465L360.486 52.0465C359.701 52.0465 359.054 52.4199 359.054 52.8732C359.054 53.3265 359.689 53.6932 360.486 53.6999L365.971 53.6932C366.363 53.6932 366.71 53.5999 366.964 53.4532C367.229 53.2999 367.391 53.0999 367.391 52.8732L367.391 46.5399C367.391 46.0865 366.756 45.7199 365.959 45.7132Z" fill="#1BB13C"/>
</g>
<rect width="110" height="110" transform="matrix(0.866025 -0.5 0.866025 0.5 55.4258 208)" fill="#E5E5E5"/>
<path d="M146.359 179.5L199.731 210.315L187.066 217.627L165.093 204.941L145.391 216.316L167.364 229.002L154.698 236.315L101.325 205.5L113.991 198.187L134.899 210.259L154.601 198.884L133.693 186.812L146.359 179.5Z" fill="#312B78"/>
<path fill-rule="evenodd" clip-rule="evenodd" d="M169.157 192.663C161.967 194.543 154.209 195.349 146.638 195.068L133.016 187.204L146.359 179.5L169.157 192.663Z" fill="#1BB13C"/>
<path fill-rule="evenodd" clip-rule="evenodd" d="M131.348 222.833C138.585 220.98 146.42 220.219 154.09 220.556L168.042 228.611L154.698 236.315L131.348 222.833Z" fill="#F3A939"/>
<defs>
<clipPath id="clip0_227_2">
<rect width="24" height="24" fill="white" transform="matrix(0.866025 -0.5 0.866025 0.5 255.478 177.5)"/>
</clipPath>
<clipPath id="clip1_227_2">
<rect width="32" height="32" fill="white" transform="matrix(0.866025 -0.5 0.866025 0.5 336.884 50.5)"/>
</clipPath>
</defs>
</svg>
