<svg width="45" height="45" viewBox="0 0 45 45" fill="none" xmlns="http://www.w3.org/2000/svg">
<rect width="45" height="45" fill="#312B78"/>
<path fill-rule="evenodd" clip-rule="evenodd" d="M25.5292 15.6666C25.8052 15.6666 26.0292 15.8906 26.0292 16.1666L26.0295 16.7318C27.0029 16.7986 27.8113 17.132 28.3835 17.7054C29.0082 18.3327 29.3368 19.2347 29.3335 20.3167V26.3987C29.3335 28.62 27.9228 30 25.6528 30H20.0142C17.7442 30 16.3335 28.6007 16.3335 26.348V20.3154C16.3335 18.2202 17.5915 16.8753 19.6433 16.7321L19.6437 16.1666C19.6437 15.8906 19.8677 15.6666 20.1437 15.6666C20.4197 15.6666 20.6437 15.8906 20.6437 16.1666L20.6435 16.7193H25.0288L25.0292 16.1666C25.0292 15.8906 25.2532 15.6666 25.5292 15.6666ZM28.3335 21.6026H17.3335V26.348C17.3335 28.0587 18.2855 29 20.0142 29H25.6528C27.3815 29 28.3335 28.076 28.3335 26.3987L28.3335 21.6026ZM25.801 25.7975C26.077 25.7975 26.301 26.0215 26.301 26.2975C26.301 26.5735 26.077 26.7975 25.801 26.7975C25.525 26.7975 25.2983 26.5735 25.2983 26.2975C25.2983 26.0215 25.519 25.7975 25.795 25.7975H25.801ZM22.8426 25.7975C23.1186 25.7975 23.3426 26.0215 23.3426 26.2975C23.3426 26.5735 23.1186 26.7975 22.8426 26.7975C22.5666 26.7975 22.34 26.5735 22.34 26.2975C22.34 26.0215 22.5606 25.7975 22.8366 25.7975H22.8426ZM19.8781 25.7975C20.1541 25.7975 20.3781 26.0215 20.3781 26.2975C20.3781 26.5735 20.1541 26.7975 19.8781 26.7975C19.6021 26.7975 19.3748 26.5735 19.3748 26.2975C19.3748 26.0215 19.5961 25.7975 19.8721 25.7975H19.8781ZM25.801 23.2064C26.077 23.2064 26.301 23.4304 26.301 23.7064C26.301 23.9824 26.077 24.2064 25.801 24.2064C25.525 24.2064 25.2983 23.9824 25.2983 23.7064C25.2983 23.4304 25.519 23.2064 25.795 23.2064H25.801ZM22.8426 23.2064C23.1186 23.2064 23.3426 23.4304 23.3426 23.7064C23.3426 23.9824 23.1186 24.2064 22.8426 24.2064C22.5666 24.2064 22.34 23.9824 22.34 23.7064C22.34 23.4304 22.5606 23.2064 22.8366 23.2064H22.8426ZM19.8781 23.2064C20.1541 23.2064 20.3781 23.4304 20.3781 23.7064C20.3781 23.9824 20.1541 24.2064 19.8781 24.2064C19.6021 24.2064 19.3748 23.9824 19.3748 23.7064C19.3748 23.4304 19.5961 23.2064 19.8721 23.2064H19.8781ZM25.0288 17.7193H20.6435L20.6437 18.3606C20.6437 18.6366 20.4197 18.8606 20.1437 18.8606C19.8677 18.8606 19.6437 18.6366 19.6437 18.3606L19.6433 17.7344C18.1499 17.8599 17.3335 18.7652 17.3335 20.3154V20.6026H28.3335L28.3335 20.3154C28.3362 19.492 28.1148 18.852 27.6755 18.412C27.2898 18.0252 26.7261 17.7942 26.0297 17.7347L26.0292 18.3606C26.0292 18.6366 25.8052 18.8606 25.5292 18.8606C25.2532 18.8606 25.0292 18.6366 25.0292 18.3606L25.0288 17.7193Z" fill="white"/>
</svg>
