<svg width="16" height="16" viewBox="0 0 16 16" fill="none" xmlns="http://www.w3.org/2000/svg">
<path fill-rule="evenodd" clip-rule="evenodd" d="M10.5292 0.666626C10.8052 0.666626 11.0292 0.890626 11.0292 1.16663L11.0295 1.73183C12.0029 1.79857 12.8113 2.13199 13.3835 2.70536C14.0082 3.33269 14.3368 4.23469 14.3335 5.31669V11.3987C14.3335 13.62 12.9228 15 10.6528 15H5.01416C2.74416 15 1.3335 13.6007 1.3335 11.348V5.31536C1.3335 3.22015 2.59153 1.87525 4.64329 1.73206L4.6437 1.16663C4.6437 0.890626 4.8677 0.666626 5.1437 0.666626C5.4197 0.666626 5.6437 0.890626 5.6437 1.16663L5.6435 1.71929H10.0288L10.0292 1.16663C10.0292 0.890626 10.2532 0.666626 10.5292 0.666626ZM13.3335 6.60263H2.3335V11.348C2.3335 13.0587 3.2855 14 5.01416 14H10.6528C12.3815 14 13.3335 13.076 13.3335 11.3987L13.3335 6.60263ZM10.801 10.7975C11.077 10.7975 11.301 11.0215 11.301 11.2975C11.301 11.5735 11.077 11.7975 10.801 11.7975C10.525 11.7975 10.2983 11.5735 10.2983 11.2975C10.2983 11.0215 10.519 10.7975 10.795 10.7975H10.801ZM7.84263 10.7975C8.11863 10.7975 8.34263 11.0215 8.34263 11.2975C8.34263 11.5735 8.11863 11.7975 7.84263 11.7975C7.56663 11.7975 7.33996 11.5735 7.33996 11.2975C7.33996 11.0215 7.56063 10.7975 7.83663 10.7975H7.84263ZM4.8781 10.7975C5.1541 10.7975 5.3781 11.0215 5.3781 11.2975C5.3781 11.5735 5.1541 11.7975 4.8781 11.7975C4.6021 11.7975 4.37476 11.5735 4.37476 11.2975C4.37476 11.0215 4.5961 10.7975 4.8721 10.7975H4.8781ZM10.801 8.20636C11.077 8.20636 11.301 8.43036 11.301 8.70636C11.301 8.98236 11.077 9.20636 10.801 9.20636C10.525 9.20636 10.2983 8.98236 10.2983 8.70636C10.2983 8.43036 10.519 8.20636 10.795 8.20636H10.801ZM7.84263 8.20636C8.11863 8.20636 8.34263 8.43036 8.34263 8.70636C8.34263 8.98236 8.11863 9.20636 7.84263 9.20636C7.56663 9.20636 7.33996 8.98236 7.33996 8.70636C7.33996 8.43036 7.56063 8.20636 7.83663 8.20636H7.84263ZM4.8781 8.20636C5.1541 8.20636 5.3781 8.43036 5.3781 8.70636C5.3781 8.98236 5.1541 9.20636 4.8781 9.20636C4.6021 9.20636 4.37476 8.98236 4.37476 8.70636C4.37476 8.43036 4.5961 8.20636 4.8721 8.20636H4.8781ZM10.0288 2.71929H5.6435L5.6437 3.36063C5.6437 3.63663 5.4197 3.86063 5.1437 3.86063C4.8677 3.86063 4.6437 3.63663 4.6437 3.36063L4.64334 2.73443C3.14985 2.85989 2.3335 3.7652 2.3335 5.31536V5.60263H13.3335L13.3335 5.31536C13.3362 4.49203 13.1148 3.85203 12.6755 3.41203C12.2898 3.02523 11.7261 2.79423 11.0297 2.73475L11.0292 3.36063C11.0292 3.63663 10.8052 3.86063 10.5292 3.86063C10.2532 3.86063 10.0292 3.63663 10.0292 3.36063L10.0288 2.71929Z" fill="white"/>
</svg>
