<svg width="20" height="21" viewBox="0 0 20 21" fill="none" xmlns="http://www.w3.org/2000/svg">
<g clip-path="url(#clip0_46_139)">
<path d="M4.6875 10.5C4.6875 9.50909 4.96051 8.58085 5.4348 7.78605V4.41464H2.0634C0.725313 6.15245 0 8.27038 0 10.5C0 12.7296 0.725313 14.8475 2.0634 16.5853H5.4348V13.2139C4.96051 12.4191 4.6875 11.4909 4.6875 10.5Z" fill="#FBBD00"/>
<path d="M10 15.8125L7.65625 18.1562L10 20.5C12.2296 20.5 14.3475 19.7747 16.0854 18.4366V15.0688H12.7175C11.9158 15.5448 10.9836 15.8125 10 15.8125Z" fill="#0F9D58"/>
<path d="M5.43476 13.2139L2.06335 16.5853C2.32828 16.9294 2.61675 17.2589 2.9289 17.5711C4.81765 19.4598 7.32886 20.5 9.99996 20.5V15.8125C8.06152 15.8125 6.36257 14.7687 5.43476 13.2139Z" fill="#31AA52"/>
<path d="M20 10.5C20 9.89161 19.9449 9.28208 19.8363 8.68841L19.7483 8.20798H10V12.8955H14.7442C14.2835 13.8119 13.5752 14.5596 12.7175 15.0688L16.0853 18.4366C16.4294 18.1717 16.7589 17.8832 17.0711 17.5711C18.9598 15.6823 20 13.1711 20 10.5Z" fill="#3C79E6"/>
<path d="M13.7565 6.74348L14.1708 7.15777L17.4854 3.84324L17.0711 3.42895C15.1823 1.5402 12.6711 0.5 10 0.5L7.65625 2.84375L10 5.1875C11.419 5.1875 12.7531 5.74008 13.7565 6.74348Z" fill="#CF2D48"/>
<path d="M10 5.1875V0.5C7.3289 0.5 4.81769 1.5402 2.9289 3.42891C2.61675 3.74105 2.32828 4.07055 2.06335 4.41465L5.43476 7.78605C6.36261 6.23125 8.06156 5.1875 10 5.1875Z" fill="#EB4132"/>
</g>
<defs>
<clipPath id="clip0_46_139">
<rect width="20" height="20" fill="white" transform="translate(0 0.5)"/>
</clipPath>
</defs>
</svg>
