<svg width="84" height="84" viewBox="0 0 84 84" fill="none" xmlns="http://www.w3.org/2000/svg">
<path d="M76.9995 51.4582V56.3006C76.9995 57.1042 76.9644 57.9147 76.8943 58.7183C75.9123 69.775 68.2319 77 57.1498 77H26.8492C21.238 77 16.5035 75.1788 13.1017 71.8769C11.769 70.6523 10.6468 69.2136 9.77002 67.5644C10.9273 66.1573 12.2249 64.6169 13.4875 63.0729C15.6267 60.5114 17.6959 57.9814 18.9935 56.3357C20.9223 53.9496 26.0075 47.6686 33.0566 50.6161C34.4945 51.2126 35.757 52.0548 36.9143 52.7916C39.755 54.6865 40.9474 55.2479 42.9464 54.1601C45.1558 52.9671 46.5937 50.6161 48.1017 48.1598C48.9083 46.858 49.7149 45.5983 50.5917 44.4403C54.4143 39.4576 60.3061 38.1242 65.2159 41.0717C67.6708 42.5455 69.775 44.4052 71.739 46.2966C72.1598 46.7176 72.5806 47.1071 72.9664 47.4931C73.4925 48.0195 75.246 49.7739 76.9995 51.4582Z" fill="#312B78"/>
<path opacity="0.4" d="M57.1854 7H26.8497C14.9609 7 7 15.3162 7 27.6994V56.301C7 60.6135 7.98196 64.4418 9.77054 67.5647C10.9279 66.1576 12.2255 64.6172 13.488 63.0698C15.6273 60.5117 17.6964 57.9818 18.994 56.3361C20.9228 53.95 26.008 47.6689 33.0571 50.6164C34.495 51.213 35.7575 52.0551 36.9148 52.792C39.7555 54.6868 40.9479 55.2483 42.9469 54.157C45.1563 52.9674 46.5942 50.6164 48.1022 48.1567C48.9088 46.8583 49.7154 45.5986 50.5922 44.4407C54.4148 39.4579 60.3066 38.1245 65.2164 41.0721C67.6713 42.5458 69.7756 44.4056 71.7395 46.2969C72.1603 46.718 72.5812 47.1075 72.9669 47.4935C73.493 48.0163 75.2465 49.7708 77 51.4586V27.6994C77 15.3162 69.0391 7 57.1854 7Z" fill="#312B78"/>
<path d="M40.0905 30.7883C40.0905 35.7184 35.9838 39.8239 31.0564 39.8239C26.1326 39.8239 22.0259 35.7184 22.0259 30.7883C22.0259 25.8617 26.1326 21.7527 31.0564 21.7527C35.9838 21.7527 40.0905 25.8617 40.0905 30.7883Z" fill="#312B78"/>
</svg>
