<svg width="45" height="45" viewBox="0 0 45 45" fill="none" xmlns="http://www.w3.org/2000/svg">
<path d="M40.1913 4.84122C39.2534 3.87862 37.8654 3.52001 36.5711 3.8975L6.38999 12.6741C5.02443 13.0535 4.05654 14.1425 3.79581 15.526C3.52945 16.9341 4.45983 18.7215 5.67533 19.4689L15.1123 25.269C16.0802 25.8636 17.3295 25.7145 18.1304 24.9066L28.9367 14.0331C29.4807 13.4668 30.3811 13.4668 30.925 14.0331C31.469 14.5804 31.469 15.4675 30.925 16.0338L20.1 26.9092C19.2972 27.7151 19.1471 28.9703 19.738 29.9442L25.5041 39.4758C26.1793 40.6083 27.3423 41.25 28.6178 41.25C28.7679 41.25 28.9367 41.25 29.0868 41.2311C30.5499 41.0424 31.7129 40.042 32.1443 38.6265L41.0917 8.48398C41.4856 7.20052 41.1292 5.80381 40.1913 4.84122Z" fill="#312B78"/>
</svg>
