<svg width="24" height="24" viewBox="0 0 24 24" fill="none" xmlns="http://www.w3.org/2000/svg">
<path d="M7.66 22.0008C4.27 22.0008 2 19.6208 2 16.0808V7.9098C2 4.3798 4.27 2.0008 7.66 2.0008H16.33C19.72 2.0008 22 4.3798 22 7.9098V16.0808C22 19.6208 19.72 22.0008 16.33 22.0008H7.66ZM12.01 13.5198C12.49 13.5198 12.88 13.1208 12.88 12.6398V8.2198C12.88 7.7398 12.49 7.3498 12.01 7.3498C11.52 7.3498 11.13 7.7398 11.13 8.2198V12.6398C11.13 13.1208 11.52 13.5198 12.01 13.5198ZM11.99 16.6898C12.48 16.6898 12.87 16.2998 12.87 15.8098C12.87 15.3308 12.48 14.9398 12.01 14.9398C11.51 14.9398 11.12 15.3308 11.12 15.8098C11.12 16.2998 11.51 16.6898 11.99 16.6898Z" fill="#312B78"/>
</svg>
