<svg width="350" height="300" viewBox="0 0 350 300" fill="none" xmlns="http://www.w3.org/2000/svg">
<g clip-path="url(#clip0_444_651)">
<path d="M26.2819 275.307C28.2987 276.015 30.4641 276.192 32.5695 275.822C34.6748 275.452 36.6492 274.546 38.3023 273.192C42.5125 269.662 43.8327 263.848 44.9065 258.464L48.0833 242.537L41.4324 247.112C36.6491 250.401 31.7584 253.797 28.4469 258.561C25.1353 263.326 23.6905 269.831 26.3505 274.987" fill="#E6E6E6"/>
<path d="M27.3087 295.698C26.4715 289.606 25.6103 283.436 26.1989 277.278C26.7205 271.81 28.3907 266.47 31.7911 262.09C33.596 259.769 35.7922 257.781 38.2811 256.215C38.9299 255.806 39.5272 256.833 38.8812 257.241C34.5747 259.959 31.2437 263.973 29.3685 268.705C27.2976 273.966 26.965 279.701 27.3217 285.291C27.5374 288.671 27.9956 292.028 28.4557 295.382C28.4921 295.534 28.4694 295.694 28.3923 295.829C28.3152 295.965 28.1894 296.066 28.0404 296.112C27.8883 296.153 27.7263 296.133 27.5894 296.055C27.4525 295.977 27.3518 295.849 27.3091 295.698L27.3087 295.698Z" fill="#F2F2F2"/>
<path d="M33.3345 285.923C34.1993 287.237 35.3882 288.306 36.7867 289.027C38.1851 289.748 39.7459 290.097 41.3187 290.041C45.3616 289.849 48.7307 287.032 51.7632 284.356L60.7348 276.444L54.7973 276.16C50.5273 275.956 46.1472 275.764 42.0801 277.081C38.0131 278.398 34.2623 281.562 33.5188 285.767" fill="#E6E6E6"/>
<path d="M24.9425 299.2C28.9726 292.077 33.6469 284.161 41.9998 281.631C44.3221 280.93 46.7572 280.679 49.1739 280.891C49.9357 280.957 49.7454 282.129 48.9852 282.064C44.9341 281.728 40.8908 282.797 37.536 285.09C34.3076 287.285 31.7939 290.336 29.6667 293.572C28.3634 295.554 27.1962 297.621 26.0289 299.684C25.6559 300.344 24.5651 299.867 24.9425 299.2Z" fill="#F2F2F2"/>
<path d="M347.417 211.268H125.228C124.543 211.268 123.887 210.995 123.403 210.512C122.919 210.028 122.646 209.373 122.646 208.689V2.57959C122.646 1.89571 122.919 1.2401 123.403 0.75653C123.887 0.272959 124.543 0.000893994 125.228 0H347.417C348.102 0.000893994 348.758 0.272959 349.243 0.75653C349.727 1.2401 349.999 1.89571 350 2.57959V208.688C349.999 209.372 349.727 210.028 349.243 210.512C348.759 210.995 348.102 211.267 347.417 211.268V211.268Z" fill="white"/>
<path d="M347.417 211.268H125.228C124.543 211.268 123.887 210.995 123.403 210.512C122.919 210.028 122.646 209.373 122.646 208.689V2.57959C122.646 1.89571 122.919 1.2401 123.403 0.75653C123.887 0.272959 124.543 0.000893994 125.228 0H347.417C348.102 0.000893994 348.758 0.272959 349.243 0.75653C349.727 1.2401 349.999 1.89571 350 2.57959V208.688C349.999 209.372 349.727 210.028 349.243 210.512C348.759 210.995 348.102 211.267 347.417 211.268V211.268ZM125.228 1.0298C124.818 1.03069 124.424 1.1939 124.134 1.48372C123.844 1.77353 123.681 2.16635 123.68 2.5762V208.688C123.681 209.098 123.844 209.491 124.134 209.781C124.424 210.071 124.818 210.234 125.228 210.235H347.417C347.828 210.234 348.221 210.071 348.511 209.781C348.801 209.491 348.965 209.098 348.966 208.688V2.57959C348.965 2.16973 348.801 1.77691 348.511 1.4871C348.221 1.19729 347.828 1.03408 347.417 1.03319L125.228 1.0298Z" fill="#CACACA"/>
<path d="M230.217 53.5581C229.752 53.5589 229.307 53.7438 228.979 54.0721C228.651 54.4004 228.466 54.8454 228.466 55.3094C228.466 55.7733 228.651 56.2183 228.979 56.5467C229.307 56.875 229.752 57.0599 230.217 57.0607H326.421C326.886 57.0599 327.331 56.875 327.659 56.5467C327.987 56.2183 328.172 55.7733 328.172 55.3094C328.172 54.8454 327.987 54.4004 327.659 54.0721C327.331 53.7438 326.886 53.5589 326.421 53.5581H230.217Z" fill="#E4E4E4"/>
<path d="M230.217 64.0669C229.753 64.068 229.308 64.253 228.98 64.5813C228.652 64.9096 228.468 65.3545 228.468 65.8182C228.468 66.2819 228.652 66.7267 228.98 67.055C229.308 67.3834 229.753 67.5684 230.217 67.5695H279.331C279.796 67.5684 280.24 67.3834 280.568 67.055C280.896 66.7267 281.08 66.2819 281.08 65.8182C281.08 65.3545 280.896 64.9096 280.568 64.5813C280.24 64.253 279.796 64.068 279.331 64.0669H230.217Z" fill="#E4E4E4"/>
<path d="M146.13 120.579C145.666 120.58 145.221 120.765 144.893 121.094C144.565 121.422 144.381 121.867 144.381 122.33C144.381 122.794 144.565 123.239 144.893 123.567C145.221 123.896 145.666 124.081 146.13 124.082H326.515C326.979 124.081 327.424 123.896 327.752 123.567C328.08 123.239 328.264 122.794 328.264 122.33C328.264 121.867 328.08 121.422 327.752 121.094C327.424 120.765 326.979 120.58 326.515 120.579H146.13Z" fill="#E4E4E4"/>
<path d="M146.13 131.088C145.666 131.089 145.221 131.274 144.893 131.602C144.565 131.931 144.381 132.375 144.381 132.839C144.381 133.303 144.565 133.748 144.893 134.076C145.221 134.404 145.666 134.589 146.13 134.59H279.425C279.889 134.589 280.334 134.404 280.662 134.076C280.99 133.748 281.174 133.303 281.174 132.839C281.174 132.375 280.99 131.931 280.662 131.602C280.334 131.274 279.889 131.089 279.425 131.088H146.13Z" fill="#E4E4E4"/>
<path d="M146.13 141.359C145.666 141.36 145.221 141.545 144.893 141.873C144.565 142.202 144.381 142.646 144.381 143.11C144.381 143.574 144.565 144.019 144.893 144.347C145.221 144.675 145.666 144.86 146.13 144.861H326.515C326.979 144.86 327.424 144.675 327.752 144.347C328.08 144.019 328.264 143.574 328.264 143.11C328.264 142.646 328.08 142.202 327.752 141.873C327.424 141.545 326.979 141.36 326.515 141.359H146.13Z" fill="#E4E4E4"/>
<path d="M146.13 151.868C145.666 151.869 145.221 152.054 144.893 152.382C144.565 152.71 144.381 153.155 144.381 153.619C144.381 154.083 144.565 154.528 144.893 154.856C145.221 155.184 145.666 155.369 146.13 155.37H279.425C279.889 155.369 280.334 155.184 280.662 154.856C280.99 154.528 281.174 154.083 281.174 153.619C281.174 153.155 280.99 152.71 280.662 152.382C280.334 152.054 279.889 151.869 279.425 151.868H146.13Z" fill="#E4E4E4"/>
<path d="M146.13 162.412C145.666 162.413 145.221 162.598 144.893 162.927C144.565 163.255 144.381 163.7 144.381 164.163C144.381 164.627 144.565 165.072 144.893 165.4C145.221 165.729 145.666 165.914 146.13 165.915H326.515C326.979 165.914 327.424 165.729 327.752 165.4C328.08 165.072 328.264 164.627 328.264 164.163C328.264 163.7 328.08 163.255 327.752 162.927C327.424 162.598 326.979 162.413 326.515 162.412H146.13Z" fill="#E4E4E4"/>
<path d="M146.13 172.921C145.666 172.922 145.221 173.107 144.893 173.435C144.565 173.764 144.381 174.208 144.381 174.672C144.381 175.136 144.565 175.581 144.893 175.909C145.221 176.237 145.666 176.422 146.13 176.423H279.425C279.889 176.422 280.334 176.237 280.662 175.909C280.99 175.581 281.174 175.136 281.174 174.672C281.174 174.208 280.99 173.764 280.662 173.435C280.334 173.107 279.889 172.922 279.425 172.921H146.13Z" fill="#E4E4E4"/>
<path d="M174.702 85.7248C169.719 85.7249 164.849 84.2492 160.707 81.4845C156.564 78.7198 153.336 74.7902 151.429 70.1925C149.523 65.5949 149.024 60.5358 149.996 55.655C150.968 50.7742 153.367 46.2909 156.889 42.772C160.412 39.2531 164.901 36.8567 169.787 35.8858C174.673 34.915 179.738 35.4132 184.341 37.3176C188.944 39.222 192.878 42.447 195.646 46.5847C198.413 50.7225 199.891 55.5872 199.891 60.5636C199.883 67.2344 197.227 73.6298 192.505 78.3468C187.782 83.0638 181.38 85.7172 174.702 85.7248Z" fill="#312B78"/>
<path d="M98.2381 180.861C98.1945 179.943 97.9499 179.045 97.5214 178.231C97.093 177.418 96.4911 176.708 95.7582 176.151C95.0254 175.595 94.1793 175.206 93.2796 175.012C92.38 174.818 91.4486 174.823 90.5511 175.027L82.225 163.306L73.8604 166.623L85.8512 183.01C86.2944 184.493 87.267 185.763 88.5846 186.577C89.9021 187.392 91.4732 187.696 93 187.431C94.5269 187.166 95.9034 186.351 96.8688 185.14C97.8342 183.93 98.3214 182.407 98.238 180.861H98.2381Z" fill="#A0616A"/>
<path d="M82.0104 179.993L56.8169 147.346L66.2567 117.712C66.9484 110.261 71.6159 108.181 71.8145 108.096L72.1174 107.966L80.3318 129.847L74.3005 145.912L89.1041 170.782L82.0104 179.993Z" fill="#3F3D56"/>
<path d="M169.503 79.3532C168.59 79.4676 167.713 79.7806 166.934 80.2702C166.155 80.7598 165.493 81.4141 164.994 82.187C164.496 82.9598 164.173 83.8325 164.048 84.7435C163.924 85.6544 164.001 86.5816 164.274 87.4596L153.219 96.6577L157.177 104.731L172.606 91.523C174.052 90.9669 175.244 89.9002 175.955 88.525C176.667 87.1499 176.848 85.5618 176.466 84.0617C176.084 82.5616 175.164 81.2538 173.88 80.3859C172.597 79.5181 171.04 79.1507 169.503 79.3532Z" fill="#A0616A"/>
<path d="M169.891 95.5809L139.254 123.195L108.945 116.085C101.455 115.972 99.0174 111.485 98.9172 111.294L98.7642 111.002L119.969 101.13L136.471 105.894L160.149 89.2285L169.891 95.5809Z" fill="#3F3D56"/>
<path d="M116.822 291.889L125.054 291.889L128.969 260.173L116.82 260.174L116.822 291.889Z" fill="#A0616A"/>
<path d="M140.929 299.523L115.058 299.525L115.057 289.54L133.67 289.539C135.595 289.539 137.442 290.303 138.803 291.663C140.164 293.022 140.929 294.866 140.929 296.789L140.929 299.523L140.929 299.523Z" fill="#2F2E41"/>
<path d="M83.9205 291.889L92.1523 291.889L96.0685 260.173L83.9194 260.174L83.9205 291.889Z" fill="#A0616A"/>
<path d="M108.028 299.523L82.1571 299.525L82.1566 289.54L100.77 289.539C101.723 289.539 102.667 289.727 103.547 290.091C104.428 290.455 105.228 290.989 105.902 291.663C106.576 292.336 107.111 293.135 107.476 294.015C107.84 294.894 108.028 295.837 108.028 296.789L108.028 299.523Z" fill="#2F2E41"/>
<path d="M80.9932 176.124L81.6645 223.072L82.3364 284.776L97.1078 283.435L104.494 198.257L113.894 283.435H129.144L130.68 197.587L125.309 178.807L80.9932 176.124Z" fill="#2F2E41"/>
<path d="M109.905 182.429C93.8324 182.43 79.0378 175.163 78.8381 175.064L78.6722 174.981L77.3234 142.648C76.9322 141.505 69.2305 118.96 67.9261 111.794C66.6045 104.534 85.7585 98.1621 88.0844 97.4169L88.6123 91.5764L110.077 89.2661L112.797 96.7393L120.498 99.6235C121.371 99.9508 122.093 100.586 122.528 101.41C122.963 102.234 123.081 103.189 122.858 104.093L118.578 121.478L129.031 178.996L126.781 179.093C121.387 181.527 115.565 182.428 109.905 182.429Z" fill="#3F3D56"/>
<path d="M107.598 83.6753C115.087 79.5858 117.839 70.2063 113.745 62.7254C109.651 55.2446 100.261 52.4953 92.7719 56.5847C85.2827 60.6741 82.5303 70.0537 86.6243 77.5345C90.7183 85.0154 100.108 87.7647 107.598 83.6753Z" fill="#A0616A"/>
<path d="M87.6677 85.0742C90.613 88.208 96.0827 86.5257 96.4665 82.2445C96.4966 81.9121 96.4944 81.5776 96.46 81.2456C96.2618 79.3492 95.165 77.6275 95.4277 75.6252C95.4872 75.1269 95.673 74.6519 95.9677 74.2455C98.3147 71.1062 103.824 75.6496 106.039 72.8077C107.397 71.0651 105.801 68.3215 106.843 66.3738C108.219 63.8033 112.293 65.0713 114.848 63.6635C117.691 62.0972 117.521 57.7403 115.65 55.0902C113.367 51.8582 109.366 50.1337 105.414 49.8852C101.463 49.6366 97.5383 50.7037 93.849 52.1398C89.6573 53.7715 85.5007 56.0265 82.9212 59.7082C79.7842 64.1854 79.4823 70.2047 81.0512 75.44C82.0055 78.6247 85.2626 82.5151 87.6677 85.0742Z" fill="#2F2E41"/>
<path d="M196.376 299.921H0.514072C0.377732 299.921 0.246967 299.867 0.15056 299.771C0.0541528 299.674 0 299.544 0 299.408C0 299.271 0.0541528 299.141 0.15056 299.044C0.246967 298.948 0.377732 298.894 0.514072 298.894H196.376C196.512 298.894 196.643 298.948 196.739 299.044C196.835 299.141 196.89 299.271 196.89 299.408C196.89 299.544 196.835 299.674 196.739 299.771C196.643 299.867 196.512 299.921 196.376 299.921Z" fill="#CACACA"/>
<path d="M173.247 70.0673C172.793 70.0678 172.355 69.8961 172.023 69.5869L163.717 61.8807C163.368 61.5562 163.162 61.1065 163.145 60.6305C163.127 60.1545 163.3 59.6911 163.624 59.342C163.949 58.993 164.399 58.787 164.875 58.7692C165.352 58.7513 165.816 58.9232 166.166 59.247L173.201 65.7745L187.121 51.8711C187.287 51.7031 187.486 51.5698 187.704 51.4786C187.923 51.3874 188.157 51.3403 188.394 51.3398C188.631 51.3394 188.866 51.3857 189.085 51.476C189.304 51.5664 189.503 51.699 189.67 51.8664C189.837 52.0337 189.97 52.2324 190.061 52.4511C190.151 52.6698 190.197 52.9041 190.197 53.1407C190.196 53.3773 190.149 53.6115 190.058 53.8298C189.967 54.0482 189.833 54.2463 189.665 54.413L174.52 69.541C174.353 69.7081 174.154 69.8406 173.936 69.9309C173.718 70.0212 173.484 70.0675 173.247 70.0673Z" fill="white"/>
</g>
<defs>
<clipPath id="clip0_444_651">
<rect width="350" height="300" fill="white"/>
</clipPath>
</defs>
</svg>
