<svg width="26" height="26" viewBox="0 0 26 26" fill="none" xmlns="http://www.w3.org/2000/svg">
<path d="M13.4724 4.33325C13.8244 4.33325 14.1104 4.61111 14.1104 4.95412V7.55971C14.1104 7.97702 14.4666 8.32307 14.8962 8.32307C15.3362 8.32307 15.682 7.97702 15.682 7.55971V4.95412C15.682 4.61111 15.968 4.33325 16.3211 4.33325H19.7366C21.9997 4.33325 23.8332 6.11442 23.8332 8.31289V10.8778C23.8332 11.0813 23.7494 11.2747 23.6027 11.4172C23.456 11.5597 23.2569 11.6411 23.0474 11.6411C22.2721 11.6411 21.6435 12.2518 21.6435 12.9948C21.6435 13.7429 22.2647 14.3506 23.0327 14.3587C23.4654 14.3628 23.8332 14.6559 23.8332 15.0763V17.6869C23.8332 19.8844 21.9997 21.6666 19.7366 21.6666H16.3211C15.968 21.6666 15.682 21.3887 15.682 21.0457V18.8472C15.682 18.4198 15.3362 18.0839 14.8962 18.0839C14.4666 18.0839 14.1104 18.4198 14.1104 18.8472V21.0457C14.1104 21.3887 13.8244 21.6666 13.4724 21.6666H6.26305C4.01048 21.6666 2.1665 19.8854 2.1665 17.6869V15.0763C2.1665 14.6559 2.53425 14.3628 2.96696 14.3587C3.73598 14.3506 4.35622 13.7429 4.35622 12.9948C4.35622 12.2722 3.74855 11.7226 2.95229 11.7226C2.74275 11.7226 2.54368 11.6411 2.397 11.4986C2.25032 11.3562 2.1665 11.1628 2.1665 10.9592V8.32307C2.1665 6.12867 4.01467 4.33325 6.27353 4.33325H13.4724ZM14.8962 10.5114C14.4666 10.5114 14.1104 10.8574 14.1104 11.2747V15.346C14.1104 15.7633 14.4666 16.1093 14.8962 16.1093C15.3362 16.1093 15.682 15.7633 15.682 15.346V11.2747C15.682 10.8574 15.3362 10.5114 14.8962 10.5114Z" fill="#312B78"/>
</svg>
